<?xml version="1.0" encoding="UTF-8" standalone="no"?>
<!DOCTYPE svg PUBLIC "-//W3C//DTD SVG 20010904//EN"
              "http://www.w3.org/TR/2001/REC-SVG-20010904/DTD/svg10.dtd">

<svg xmlns="http://www.w3.org/2000/svg"
     width="0.666667in" height="0.666667in"
     viewBox="0 0 200 200">
  <rect x="0" y="0" width="100%" height="100%" fill="#676767"/>
  <path
      fill="white" 
      stroke="white" 
      stroke-width="1"
      d="
      M 80.00,127.00
      C 69.76,123.11 61.98,116.75 55.48,108.00
         35.85,81.59 37.61,39.73 61.17,16.17
         88.53,-11.19 130.93,-2.28 148.68,31.00
         153.48,40.01 156.88,52.78 157.00,63.00
         157.22,81.97 151.54,101.12 137.83,114.83
         130.80,121.86 124.69,123.65 120.00,128.00
         127.57,128.17 134.84,130.31 142.00,132.67
         172.16,142.60 199.90,166.00 200.00,200.00
         200.00,200.00 0.00,200.00 0.00,200.00
         0.09,171.04 20.81,148.93 46.00,137.31
         53.07,134.05 61.44,131.35 69.00,129.47
         69.00,129.47 80.00,127.00 80.00,127.00
      Z"
   />
</svg>
